<?xml version="1.0" standalone="no"?><svg xmlns="http://www.w3.org/2000/svg" viewBox="0 0 1440 320"><path fill="#1f1f1f" fill-opacity="1" d="M0,256L26.7,250.7C53.3,245,107,235,160,202.7C213.3,171,267,117,320,85.3C373.3,53,427,43,480,42.7C533.3,43,587,53,640,96C693.3,139,747,213,800,202.7C853.3,192,907,96,960,90.7C1013.3,85,1067,171,1120,176C1173.3,181,1227,107,1280,69.3C1333.3,32,1387,32,1413,32L1440,32L1440,0L1413.3,0C1386.7,0,1333,0,1280,0C1226.7,0,1173,0,1120,0C1066.7,0,1013,0,960,0C906.7,0,853,0,800,0C746.7,0,693,0,640,0C586.7,0,533,0,480,0C426.7,0,373,0,320,0C266.7,0,213,0,160,0C106.7,0,53,0,27,0L0,0Z"></path></svg>